<?xml version="1.0" encoding="UTF-8" standalone="no"?>
<!-- Created with Inkscape (http://www.inkscape.org/) -->

<svg
   width="210mm"
   height="297mm"
   viewBox="0 0 210 297"
   version="1.1"
   id="svg1"
   xml:space="preserve"
   xmlns="http://www.w3.org/2000/svg"
   xmlns:svg="http://www.w3.org/2000/svg"><defs
     id="defs1" /><g
     id="layer1"><path
       id="rect1-9"
       style="fill:none;stroke:#cc152d;stroke-width:1.5875"
       d="m 149.84994,104.79929 c 10.12941,0 20.55474,-0.27206 31.65496,0 4.15666,0.10188 4.2507,-0.31302 4.64833,2.45951 l 0.79446,5.53941 c 0.32872,2.29203 -1.42807,2.6154 -4.4968,2.25198 -12.93444,-1.53179 -24.07044,-1.63716 -33.54694,-0.94599 -3.54153,0.2583 -4.63193,2.38615 -4.63193,-2.01731 v -6.07037 c 0,-2.31549 2.48775,-1.21723 5.57792,-1.21723 z" /><path
       id="rect1-5-9"
       style="fill:none;stroke:#cc152d;stroke-width:1.5875"
       d="m 107.24703,105.45664 c 9.31856,-1.35142 16.50048,-0.94777 27.73584,-0.67571 4.15669,0.10065 7.10951,0.30306 6.89373,3.09563 l -0.56375,7.29626 c -0.0135,0.17489 -0.0216,0.32304 -0.0264,0.44753 -0.0587,1.51887 0.34179,0.32646 -2.51377,0.38062 -13.73121,0.26044 -22.49782,-1.15795 -31.87506,-1.6381 -3.05181,-0.15626 -5.46936,1.42219 -5.03735,-2.28759 l 0.57335,-4.92366 c 0.26783,-2.29994 1.75527,-1.25151 4.81345,-1.69502 z" /><path
       id="rect1-0"
       style="fill:none;stroke:#cc152d;stroke-width:1.5875"
       d="m 61.031085,105.05086 c 10.129412,0 20.904192,0.76949 31.463842,0.0956 4.149467,-0.26482 6.004956,-0.34102 5.960164,2.45951 l -0.09556,5.97481 c -0.03703,2.31519 -2.509199,2.05844 -5.577924,1.69502 -12.934445,-1.53179 -22.751828,-1.26453 -32.228321,-0.57336 -3.541529,0.2583 -4.431206,1.75284 -4.431206,-2.65062 0,-2.50041 0.446641,3.67776 -0.38224,-5.21033 -0.215004,-2.30549 2.201075,-1.79059 5.291245,-1.79059 z" /><path
       id="rect1-7"
       style="fill:none;stroke:#cc152d;stroke-width:1.5875"
       d="m 18.550469,104.76983 c 7.609345,0.0516 12.565353,0.97245 28.073698,0.33786 4.154432,-0.17 6.004499,-1.76038 5.999746,1.04052 l -0.0164,9.66124 c 0,0 -2.321418,0.4825 -5.409991,0.38318 -36.952022,-1.18828 -22.751828,-0.30893 -32.228321,0.38224 -3.541529,0.2583 -5.5779241,0.22388 -5.5779241,-4.17958 v -6.07037 c 0,-2.31549 6.0690891,-1.57604 9.1591881,-1.55509 z" /><path
       id="rect1-1-8"
       style="fill:none;stroke:#cc152d;stroke-width:1.5875"
       d="m 164.5925,91.306889 c 0,-0.04424 7.44363,-0.456844 9.69685,-0.302954 6.58349,0.449637 5.83179,0.396489 7.69643,0.307754 2.47954,-0.117997 9.55185,0.530237 14.26168,0.265437 4.15136,-0.233401 4.96657,-0.340978 4.91862,2.459502 -0.0956,5.581349 -0.19112,4.683983 -0.28668,7.025972 -0.0944,2.31356 -2.08537,1.71322 -5.17251,1.57627 -13.20472,-0.5858 -22.31361,-0.0155 -31.65496,-0.67571 -3.5421,-0.25035 -5.1353,1.30393 -5.03735,-3.098433 l 0.14475,-6.505781 c 0.0515,-2.314914 2.38372,-0.552119 5.43317,-1.052104 z" /><path
       id="rect1-1"
       style="fill:none;stroke:#cc152d;stroke-width:1.5875"
       d="m 119.59791,91.27134 c 10.12941,-1.197421 21.09531,0.863976 31.65496,0.270284 4.15136,-0.2334 4.96657,-0.340978 4.91862,2.459502 -0.0956,5.581349 -0.19112,4.683983 -0.28668,7.025974 -0.0944,2.31356 -2.08537,1.71322 -5.17251,1.57627 -13.20472,-0.5858 -22.31361,-0.0155 -31.65496,-0.67571 -3.5421,-0.25035 -5.03735,1.30502 -5.03735,-3.098435 v -6.070377 c 0,-2.315487 2.50912,-1.124738 5.57792,-1.487508 z" /><path
       id="rect1-5"
       style="fill:none;stroke:#cc152d;stroke-width:1.5875"
       d="m 76.084206,91.894021 c 10.129412,0 21.095312,0.67393 31.654964,0 4.14946,-0.264824 3.22789,-0.241693 3.38004,2.555062 l 0.38224,7.025977 c 0.12579,2.31207 -0.76823,1.4452 -3.85784,1.5039 -13.7312,0.26091 -21.991043,0.19347 -31.368284,-0.28668 -3.051811,-0.15626 -6.009927,-0.4698 -5.577924,-4.179575 l 0.573359,-4.923661 c 0.267828,-2.299945 1.723275,-1.695023 4.813445,-1.695023 z" /><path
       id="rect1"
       style="fill:none;stroke:#cc152d;stroke-width:1.5875"
       d="m 31.570203,91.73745 c 10.129412,0 21.095312,0.67393 31.654962,0 4.149467,-0.264824 5.978793,-0.33906 5.864604,2.459502 l -0.28668,7.025978 c -0.0944,2.31356 -2.509199,2.34512 -5.577924,1.9817 -12.934445,-1.53179 -22.178469,-0.69117 -31.654962,0 -3.541529,0.2583 -5.577924,0.22388 -5.577924,-4.179579 v -6.070377 c 0,-2.315487 2.487754,-1.217224 5.577924,-1.217224 z" /><path
       style="fill:none;stroke:#cc152d;stroke-width:1.5875;stroke-dasharray:none;stroke-opacity:1"
       d="m 18.379316,91.761436 h 5.675965"
       id="path1" /><path
       style="fill:none;stroke:#cc152d;stroke-width:1.5875;stroke-dasharray:none;stroke-opacity:1"
       d="M 23.109287,102.09781 V 92.166862"
       id="path2" /><path
       style="fill:none;stroke:#cc152d;stroke-width:1.5875;stroke-dasharray:none;stroke-opacity:1"
       d="m 18.194987,101.61323 5.630999,0.0956"
       id="path3" /></g></svg>
