<?xml version="1.0" encoding="utf-8"?>
<!-- Generator: Adobe Illustrator 24.3.0, SVG Export Plug-In . SVG Version: 6.00 Build 0)  -->
<svg version="1.1" id="Capa_1" xmlns="http://www.w3.org/2000/svg" xmlns:xlink="http://www.w3.org/1999/xlink" x="0px" y="0px"
	 viewBox="0 0 1200 1200" enable-background="new 0 0 1200 1200" xml:space="preserve">
<g>
	<path fill="#F9C54C" d="M870.695,372.351c-71.164-63.624-177.851-107.278-250.54-102.413
		c-52.064,3.485-106.438,83.939-173.07,186.915c-66.631,102.976-379.886,593.916-345.272,630.837
		c34.613,36.922,258.449-29.999,287.295-34.613c28.844-4.616,13.845,96.053,66.631,96.919
		c52.786,0.865,16.442-118.552,52.786-125.475c36.344-6.923,36.344,68.362,87.4,55.382c51.055-12.98,9.518-70.958,70.958-102.111
		C728.323,946.639,1013.31,877.7,1013.31,877.7c17.607-4.315,21.566-49.663,22.377-86.521
		C1036.728,743.873,1044.918,528.113,870.695,372.351z M714.484,380.614c6.884-4.404,16.056-2.626,20.916,3.945
		c19.052,25.76,54.798,94.752-34.059,170.358c-8.537,7.264-21.723,3.478-25.162-7.191
		C663.56,508.584,646.482,424.123,714.484,380.614z M862.887,648.289c-46.708,71.381-135.881,59.604-176.821,49.53
		c-11.058-2.721-15.677-15.861-8.764-24.91c60.195-78.79,139.263-68.744,179.808-47.366
		C865.411,629.919,868.025,640.437,862.887,648.289z"/>
	<path fill="#CC152D" d="M1094.909,504.864C1034.88,339.766,918.16,194.484,771.365,97.939
		c-50.032-28.91-117.676-70.249-173.981-33.364c-47.71,27.552-98.237,96.553-54.225,147.816
		c-58.288,48.905-94.129,117.928-136.423,179.066c-73.677,113.671-146.128,228.098-214.721,344.954
		c-24.375,45.835-160.321,261.207-128.15,297.071c39.423,50.006,241.154-14.865,300.303-26.652
		c11.809,31.067,12.583,77.252,49.249,92.537c17.029,7.077,39.343,4.045,51.124-11.173c24.691-32.482,9.792-76.777,23.615-111.219
		c0.465-0.05,0.944-0.175,1.24-0.1c3.294,0.255,4.935,2.143,8.689,6.425c6.636,8.267,12.09,18.555,19.52,27.567
		c18.303,26.556,58.316,30.187,82.42,8.597c30.503-29.824,6.316-75.73,54.998-93.744c103.037-40.576,212.539-65.537,319.54-94.209
		c-0.519,28.124,15.661,61.995,47.225,64.434c36.846,2.677,78.55-7.448,101.058-39.096c19.616-26.154,16.692-61.846,18.188-92.588
		C1140.827,675.857,1124.143,588.128,1094.909,504.864z M362.85,1004.569c-0.018-0.06-0.006-0.051,0.022-0.011
		C362.864,1004.562,362.85,1004.569,362.85,1004.569z M367.775,1006.135c-0.05,0.014-0.102-0.012-0.152-0.003
		C367.715,1006.117,368.153,1006.024,367.775,1006.135z M487.96,976.997c-0.023,0.035-0.033,0.091-0.075,0.078
		C487.885,977.075,487.694,977.003,487.96,976.997z M488.078,976.986c0.016-0.001,0.031-0.005,0.046-0.006
		C488.112,976.989,488.094,976.984,488.078,976.986z M488.19,976.917c0.005-0.014,0.016-0.023,0.022-0.037
		c0.005,0,0.002,0.001,0.006,0.001C488.209,976.894,488.201,976.901,488.19,976.917z M1108.709,805.781
		c-0.979,8.229-1.901,15.87-4.189,23.147c-10.353,23.566-35.821,35.275-60.709,36.927c-11.906,0.636-26.644,3.363-33.414-9.42
		c-5.292-9.051-6.744-22.683-6.042-33.461c-0.056-15.399-0.982-30.113-2.026-45.304c-3.154-43.671-9.152-87.649-17.414-130.612
		c-18.556-85.614-39.646-174.922-88.295-249.124c-51.342-73.065-122.483-129.325-199.518-173.193
		c-13.167-7.019-24.715,12.748-11.348,20.456c32.844,18.783,64.562,41.229,93.69,65.574c46.338,38.7,88.737,83.943,115.73,138.178
		c45.303,101.591,67.658,212.889,77.083,323.441c-47.279-84.982-217.353-72.591-239.42,11.337
		c-6.087,23.844-14.31,54.336-8.725,86.03c-37.147,12.878-86.435,21.561-114.667,50.866c-17.991,18.246-19.29,46.42-25.436,67.696
		c-3.104,10.414-15.176,14.032-24.703,13.71c-7.394-0.73-11.774-5.053-16.836-11.195c-11.523-14.445-19.443-34.855-38.182-43.202
		c-30.938-12.943-51.31,13.359-53.161,41.561c-4.217,25.844-0.153,53.608-10.823,76.437c-3.983,7.203-14.155,4.639-19.173,0.225
		c-24.971-22.785-10.825-98.52-60.544-92.294c-65.885,13.551-208.545,58.317-268.325,40.416
		c10.109-50.732,39.203-97.232,62.239-143.616c59.629-110.567,125.462-218.632,191.446-325.828
		c49.527,86.527,173.712,84.829,231.057-15.659c43.297-74.393-30.992-174.108-111.275-174.223
		c30.94-45.225,59.042-97.672,104.878-128.532c8.415-4.993,16.847-7.316,24.857-6.666c23.771-0.896,20.22-42.578-31.863-19.589
		c-36.518-39.035,10.773-92.475,46.759-113.175c69.321-48.319,228.903,91.942,275.956,143.231
		C1034.168,381.233,1123.82,592.695,1108.709,805.781z M649.32,513.281c2.798,7.93,6.04,15.762,9.738,23.324
		c1.442,3.423,3.855,7.558,7.715,8.426c21.561-7.034,38.442-23.835,54.11-39.569c48.828-50.201,49.912-124.622,0.935-175.166
		c-13.335-12.201-31.651,6.873-43.128,14.618C628.729,384.922,628.755,458.079,649.32,513.281z M664.484,429.871
		c3.853-28.304,18.827-53.974,43.519-68.923c44.043,60.297,13.876,114.488-34.343,159.787
		C665.193,491.651,660.233,459.67,664.484,429.871z M706.364,583.875c-26.229,16.32-58.059,47.658-65.395,78.132
		c1.304,3.911,5.554,5.932,9.16,7.151c61.144,23.673,139.517,27.259,190.473-20.897c6.67-6.55,13.025-13.802,18.228-21.561
		c6.414-10.661,20.148-25.715,6.836-36.516C819.928,556.376,754.598,554.606,706.364,583.875z M798.126,594.379
		c13.052,2.235,25.887,6.212,37.464,12.535c-34.891,57.111-111.027,60.151-170.361,46.638
		C695.92,612.731,746.391,584.414,798.126,594.379z M606.776,767.932c-2.814,0.018-5.353-1.18-7.119-3.1
		c-15.994-19.829-31.785-40.431-44.179-62.648c-2.335-4.696-0.42-10.396,4.277-12.732c14.995-3.853,33.254,16.635,41.599,27.348
		C608.835,726.623,628.168,764.948,606.776,767.932z M267.139,884.457c-1.518,6.164-2.895,12.48-5.418,18.908
		c-2.797,8.177-15.165,8.063-18.011,0.105c-7.637-20.259-5.028-43.004,3.114-62.618c4.164-8.429,12.609-28.567,24.979-19.285
		C280.595,830.254,269.048,871.564,267.139,884.457z M472.796,867.397c-51.574,27.275-96.92,11.954-122.984-21.324
		c-24.081-30.746-14.877-63.971-8.927-87.279c11.383-44.582,89.263-57.525,131.91-29.754
		C515.443,756.811,524.37,840.122,472.796,867.397z"/>
</g>
</svg>
