<svg aria-hidden="true" style="position: absolute; width: 0; height: 0; overflow: hidden;" version="1.1" xmlns="http://www.w3.org/2000/svg" xmlns:xlink="http://www.w3.org/1999/xlink">
<defs>
<symbol id="icon-camera" viewBox="0 0 24 24">
<title>camera</title>
<path d="M19 6h-1.586l-1-1c-0.579-0.579-1.595-1-2.414-1h-4c-0.819 0-1.835 0.421-2.414 1l-1 1h-1.586c-1.654 0-3 1.346-3 3v8c0 1.654 1.346 3 3 3h14c1.654 0 3-1.346 3-3v-8c0-1.654-1.346-3-3-3zM12 16c-1.933 0-3.5-1.568-3.5-3.5 0-1.934 1.567-3.5 3.5-3.5s3.5 1.566 3.5 3.5c0 1.932-1.567 3.5-3.5 3.5zM18 11.299c-0.719 0-1.3-0.58-1.3-1.299s0.581-1.301 1.3-1.301 1.3 0.582 1.3 1.301-0.581 1.299-1.3 1.299z"></path>
</symbol>
<symbol id="icon-social-twitter" viewBox="0 0 24 24">
<title>social-twitter</title>
<path d="M18.89 7.012c0.808-0.496 1.343-1.173 1.605-2.034-0.786 0.417-1.569 0.703-2.351 0.861-0.703-0.756-1.593-1.14-2.66-1.14-1.043 0-1.924 0.366-2.643 1.078-0.715 0.717-1.076 1.588-1.076 2.605 0 0.309 0.039 0.585 0.117 0.819-3.076-0.105-5.622-1.381-7.628-3.837-0.34 0.601-0.51 1.213-0.51 1.846 0 1.301 0.549 2.332 1.645 3.089-0.625-0.053-1.176-0.211-1.645-0.47 0 0.929 0.273 1.705 0.82 2.388 0.549 0.676 1.254 1.107 2.115 1.291-0.312 0.080-0.641 0.118-0.979 0.118-0.312 0-0.533-0.026-0.664-0.083 0.23 0.757 0.664 1.371 1.291 1.841 0.625 0.472 1.344 0.721 2.152 0.743-1.332 1.045-2.855 1.562-4.578 1.562-0.422 0-0.721-0.006-0.902-0.038 1.697 1.102 3.586 1.649 5.676 1.649 2.139 0 4.029-0.542 5.674-1.626 1.645-1.078 2.859-2.408 3.639-3.974 0.784-1.564 1.172-3.192 1.172-4.892v-0.468c0.758-0.57 1.371-1.212 1.84-1.921-0.68 0.293-1.383 0.492-2.11 0.593z"></path>
</symbol>
<symbol id="icon-social-facebook" viewBox="0 0 24 24">
<title>social-facebook</title>
<path d="M13 10h3v3h-3v7h-3v-7h-3v-3h3v-1.255c0-1.189 0.374-2.691 1.118-3.512 0.744-0.823 1.673-1.233 2.786-1.233h2.096v3h-2.1c-0.498 0-0.9 0.402-0.9 0.899v2.101z"></path>
</symbol>
<symbol id="icon-mail" viewBox="0 0 24 24">
<title>mail</title>
<path d="M19 7h-14c-1.104 0-2 0.896-2 2v9c0 1.104 0.896 2 2 2h14c1.104 0 2-0.896 2-2v-9c0-1.104-0.896-2-2-2zM9.316 14.316l1.602 1.4c0.305 0.266 0.691 0.398 1.082 0.398s0.777-0.133 1.082-0.398l1.602-1.4-0.037 0.037 3.646 3.646h-12.586l3.646-3.646-0.037-0.037zM5 17.293v-6.753l3.602 3.151-3.602 3.602zM15.398 13.691l3.602-3.151v6.75l-3.602-3.599zM19 9v0.21l-6.576 5.754c-0.227 0.198-0.621 0.198-0.848 0l-6.576-5.754v-0.21h14z"></path>
</symbol>
<symbol id="icon-device-laptop" viewBox="0 0 24 24">
<title>device-laptop</title>
<path d="M21.989 16.049c0.009-0.315 0.011-0.657 0.011-1.049v-9c0-1.654-1.346-3-3-3h-14c-1.654 0-3 1.346-3 3v9c0 0.385 0.002 0.73 0.012 1.049-1.145 0.228-2.012 1.24-2.012 2.451 0 1.378 1.122 2.5 2.5 2.5h19c1.378 0 2.5-1.122 2.5-2.5 0-1.211-0.866-2.222-2.011-2.451zM4 6c0-0.551 0.449-1 1-1h14c0.551 0 1 0.449 1 1v9c0 0.388-0.005 0.726-0.014 1h-0.986v-9c0-0.55-0.45-1-1-1h-12c-0.55 0-1 0.45-1 1v9h-0.98c-0.012-0.264-0.020-0.599-0.020-1v-9zM18 16h-12v-9h12v9zM21.5 19h-19c-0.271 0-0.5-0.229-0.5-0.5s0.229-0.5 0.5-0.5h19c0.271 0 0.5 0.229 0.5 0.5s-0.229 0.5-0.5 0.5z"></path>
</symbol>
<symbol id="icon-device-desktop" viewBox="0 0 24 24">
<title>device-desktop</title>
<path d="M21 1h-18c-1.654 0-3 1.346-3 3v11c0 1.654 1.346 3 3 3h6v2h-3c-0.552 0-1 0.448-1 1s0.448 1 1 1h12c0.552 0 1-0.448 1-1s-0.448-1-1-1h-3v-2h6c1.654 0 3-1.346 3-3v-11c0-1.654-1.346-3-3-3zM14 20h-4v-2h4v2zM22 15c0 0.551-0.449 1-1 1h-18c-0.551 0-1-0.449-1-1v-11c0-0.551 0.449-1 1-1h18c0.551 0 1 0.449 1 1v11z"></path>
<path d="M20 4h-16c-0.55 0-1 0.45-1 1v8c0 0.55 0.45 1 1 1h16c0.55 0 1-0.45 1-1v-8c0-0.55-0.45-1-1-1zM20 13h-16v-8h16v8z"></path>
</symbol>
<symbol id="icon-phone-outline" viewBox="0 0 24 24">
<title>phone-outline</title>
<path d="M19.502 3.672l-1.795-1.793c-0.566-0.567-1.32-0.879-2.121-0.879s-1.555 0.312-2.121 0.879l-1.586 1.586c-1.17 1.17-1.17 3.072 0 4.242l1.379 1.379-4.172 4.172-1.379-1.379c-0.566-0.567-1.32-0.879-2.121-0.879s-1.555 0.312-2.121 0.879l-1.586 1.586c-1.17 1.17-1.17 3.072 0 4.242l1.794 1.793c0.465 0.465 1.796 1.545 4.116 1.545 2.764 0 5.694-1.529 8.711-4.545 6.245-6.246 4.825-11.002 3.002-12.828zM13.293 4.879l1.586-1.586c0.195-0.195 0.451-0.293 0.707-0.293s0.512 0.098 0.707 0.293l1.083 1.082-3.001 3-1.082-1.082c-0.391-0.391-0.391-1.023 0-1.414zM3.293 16.293c-0.391-0.391-0.391-1.023 0-1.414l1.586-1.586c0.195-0.195 0.451-0.293 0.707-0.293s0.512 0.098 0.707 0.293l1.082 1.082-2.999 3-1.083-1.082zM15.086 15.086c-3.083 3.082-5.551 3.959-7.297 3.959-1.349 0-2.267-0.523-2.702-0.959-0.004-0.004 2.995-3.004 2.995-3.004l0.297 0.297c0.195 0.195 0.451 0.293 0.707 0.293s0.512-0.098 0.707-0.293l5.586-5.586c0.391-0.391 0.391-1.023 0-1.414l-0.297-0.297 3.001-3c1.003 1.004 2.467 4.539-2.997 10.004z"></path>
</symbol>
<symbol id="icon-leaf" viewBox="0 0 32 32">
<title>leaf</title>
<path d="M31.604 4.203c-3.461-2.623-8.787-4.189-14.247-4.189-6.754 0-12.257 2.358-15.099 6.469-1.335 1.931-2.073 4.217-2.194 6.796-0.108 2.296 0.278 4.835 1.146 7.567 2.965-8.887 11.244-15.847 20.79-15.847 0 0-8.932 2.351-14.548 9.631-0.003 0.004-0.078 0.097-0.207 0.272-1.128 1.509-2.111 3.224-2.846 5.166-1.246 2.963-2.4 7.030-2.4 11.931h4c0 0-0.607-3.819 0.449-8.212 1.747 0.236 3.308 0.353 4.714 0.353 3.677 0 6.293-0.796 8.231-2.504 1.736-1.531 2.694-3.587 3.707-5.764 1.548-3.325 3.302-7.094 8.395-10.005 0.292-0.167 0.48-0.468 0.502-0.804s-0.126-0.659-0.394-0.862z"></path>
</symbol>
<symbol id="icon-earth" viewBox="0 0 32 32">
<title>earth</title>
<path d="M16 0c-8.837 0-16 7.163-16 16s7.163 16 16 16 16-7.163 16-16-7.163-16-16-16zM16 30c-1.967 0-3.84-0.407-5.538-1.139l7.286-8.197c0.163-0.183 0.253-0.419 0.253-0.664v-3c0-0.552-0.448-1-1-1-3.531 0-7.256-3.671-7.293-3.707-0.188-0.188-0.442-0.293-0.707-0.293h-4c-0.552 0-1 0.448-1 1v6c0 0.379 0.214 0.725 0.553 0.894l3.447 1.724v5.871c-3.627-2.53-6-6.732-6-11.489 0-2.147 0.484-4.181 1.348-6h3.652c0.265 0 0.52-0.105 0.707-0.293l4-4c0.188-0.188 0.293-0.442 0.293-0.707v-2.419c1.268-0.377 2.61-0.581 4-0.581 2.2 0 4.281 0.508 6.134 1.412-0.13 0.109-0.256 0.224-0.376 0.345-1.133 1.133-1.757 2.64-1.757 4.243s0.624 3.109 1.757 4.243c1.139 1.139 2.663 1.758 4.239 1.758 0.099 0 0.198-0.002 0.297-0.007 0.432 1.619 1.211 5.833-0.263 11.635-0.014 0.055-0.022 0.109-0.026 0.163-2.541 2.596-6.084 4.208-10.004 4.208z"></path>
</symbol>
<symbol id="icon-happy" viewBox="0 0 32 32">
<title>happy</title>
<path d="M16 32c8.837 0 16-7.163 16-16s-7.163-16-16-16-16 7.163-16 16 7.163 16 16 16zM16 3c7.18 0 13 5.82 13 13s-5.82 13-13 13-13-5.82-13-13 5.82-13 13-13zM16 18.711c3.623 0 7.070-0.963 10-2.654-0.455 5.576-4.785 9.942-10 9.942s-9.544-4.371-10-9.947c2.93 1.691 6.377 2.658 10 2.658zM8 11c0-1.657 0.895-3 2-3s2 1.343 2 3c0 1.657-0.895 3-2 3s-2-1.343-2-3zM20 11c0-1.657 0.895-3 2-3s2 1.343 2 3c0 1.657-0.895 3-2 3s-2-1.343-2-3z"></path>
</symbol>
<symbol id="icon-bold" viewBox="0 0 32 32">
<title>bold</title>
<path d="M22.121 15.145c1.172-1.392 1.879-3.188 1.879-5.145 0-4.411-3.589-8-8-8h-10v28h12c4.411 0 8-3.589 8-8 0-2.905-1.556-5.453-3.879-6.855zM12 6h3.172c1.749 0 3.172 1.794 3.172 4s-1.423 4-3.172 4h-3.172v-8zM16.969 26h-4.969v-8h4.969c1.827 0 3.313 1.794 3.313 4s-1.486 4-3.313 4z"></path>
</symbol>
</defs>
</svg>
